<svg width="110" height="92" viewBox="0 0 110 92" fill="none" xmlns="http://www.w3.org/2000/svg">
<mask id="mask0_40000214_1473" style="mask-type:luminance" maskUnits="userSpaceOnUse" x="0" y="0" width="110" height="92">
<path d="M109.932 0H0.0683594V91.1914H109.932V0Z" fill="white"/>
</mask>
<g mask="url(#mask0_40000214_1473)">
<path d="M73.2636 28.2873C80.2662 25.4011 87.3569 24.9682 94.4077 28.0916C103.139 31.9562 109.114 41.4397 108.597 50.4115C108.079 59.4195 101.111 67.856 91.7462 70.811C74.0325 75.2863 55.9036 68.4528 47.5087 63.3398C48.216 63.5267 48.924 63.7072 49.6285 63.9014C58.0716 66.2275 82.3085 71.8056 90.5734 67.4094C93.98 65.9887 96.9637 63.7178 99.2402 60.8141C102.927 56.0832 104.498 50.8395 102.213 44.9428C99.6784 38.3979 95.0501 34.0901 88.0076 32.9087C80.5542 31.6574 74.2526 34.614 68.4277 38.8739C61.6019 43.8666 56.5745 50.4653 51.9399 57.4142C46.8873 64.9932 41.2973 72.1054 33.8002 77.4753C29.0506 80.877 23.8995 83.2506 17.8992 83.1884C6.41004 83.0696 -1.50034 72.7156 1.95714 61.8771C5.28679 51.4334 22.2009 48.9595 32.8807 51.9989C34.4311 52.3946 35.9557 52.8848 37.4461 53.4664C34.8177 53.2488 32.1903 52.8691 29.5599 52.8461C22.6362 52.0004 9.55461 53.5403 6.55206 59.6674C4.50482 63.8447 4.28053 68.4142 7.21402 72.4787C10.1945 76.608 14.3879 78.2477 19.4064 77.5613C23.5523 76.9959 27.0592 74.948 30.2909 72.4053C36.1795 67.7714 40.6144 61.8742 44.8681 55.7906C48.2992 50.8855 51.7861 46.0029 55.5499 41.3531C57.7089 38.6856 60.434 36.4749 63.004 33.9918C63.1109 33.8877 63.2277 33.7938 63.3521 33.711C66.4763 31.6466 62.8698 33.8656 68.6458 30.1912L73.2636 28.2873Z" fill="#48D1CC"/>
<path fill-rule="evenodd" clip-rule="evenodd" d="M72.3031 61.3734L67.0206 47.52H61.5934C63.9537 44.8353 66.5914 42.4077 69.4626 40.2775C69.5137 40.2404 69.5633 40.2054 69.6129 40.1702L80.2409 68.0121C79.6286 68.0479 79.0115 68.0724 78.3831 68.0724C77.074 68.0664 75.7663 67.9892 74.4663 67.8413C73.9721 65.9824 73.2515 63.8265 72.3031 61.3734ZM65.7597 30.076L54.6201 0.893264C53.5913 0.893585 51.3757 0.744713 47.974 0.446631C44.7295 0.148877 42.1777 0 40.3192 0H38.242V1.34185C41.6025 1.4807 44.833 2.67948 47.4693 4.76619C50.0987 6.8521 52.1661 9.80679 53.6703 13.6303L37.3718 53.4377C37.397 53.4474 37.4222 53.4572 37.4473 53.4671C37.4194 53.4648 37.3907 53.4624 37.3628 53.46L33.969 61.7486C32.4744 65.3965 30.9041 68.6484 29.2656 71.347C32.86 68.0293 36.9728 63.4772 39.4679 60.2536L44.6505 47.52H48.6386C50.0526 45.5871 51.4504 43.74 52.8728 41.9334H46.9654L56.2808 19.2907L61.5577 33.1744C61.5528 33.1135 61.5402 33.0531 61.5221 32.9944C61.557 32.9606 61.5927 32.9271 61.629 32.8937C61.6835 32.843 61.738 32.792 61.7905 32.7396C61.9771 32.5608 62.1798 32.3992 62.3957 32.2568C63.5434 31.4968 63.7132 31.3608 63.7824 31.3052L63.7901 31.2994C64.3996 30.8259 65.0398 30.3929 65.7066 30.0036C65.708 30.007 65.7115 30.0099 65.7115 30.0134L65.7597 30.076ZM55.0604 41.9334H54.0099C54.2511 41.9544 54.4929 41.9719 54.7354 41.975C54.8459 41.9812 54.9563 41.9669 55.0604 41.9334ZM75.254 73.4557C75.08 76.5135 73.5828 78.3454 70.7606 78.9507V80.292C76.1402 79.795 80.749 79.4973 84.5868 79.3973L82.5313 74.0121C82.4635 74.0135 82.3957 74.0149 82.3279 74.0163L82.3223 74.017C82.1343 74.0211 81.9456 74.026 81.7569 74.026C79.5769 74.0211 77.4011 73.8303 75.254 73.4557ZM34.8156 78.8857C35.9879 78.0477 37.1035 77.1712 38.1756 76.2668C38.992 77.3683 40.1214 78.2644 41.564 78.9542V80.2948C40.3905 80.2451 39.2212 80.1207 38.0631 79.9229C36.7037 79.7091 35.335 79.5602 33.9622 79.477C34.2457 79.2855 34.5298 79.0905 34.8156 78.8857ZM30.8312 79.4232C30.8408 79.4232 30.8504 79.4232 30.86 79.4232C30.8498 79.4239 30.8396 79.4239 30.8293 79.4246C30.8299 79.4239 30.8305 79.4239 30.8312 79.4232ZM89.3333 79.398L87.1219 73.6039C87.1247 73.6088 87.1268 73.6144 87.1289 73.6193C88.8727 73.3739 90.5935 72.9881 92.2744 72.466C92.7602 72.313 93.2347 72.1375 93.7058 71.953C96.1346 75.3694 98.6326 77.7031 101.199 78.9556V80.2955C95.8201 79.6979 91.8648 79.3987 89.3333 79.398ZM87.003 73.2922C87.0156 73.3236 87.0275 73.3558 87.0394 73.3879L87.003 73.2922ZM86.5585 72.1005C86.6242 72.2319 86.6732 72.3703 86.7053 72.5136L86.5222 72.0327C86.5299 72.046 86.5376 72.0592 86.5452 72.0732L86.5585 72.1005ZM85.3417 68.8284C85.2851 68.7096 85.2257 68.5918 85.1642 68.475L85.3004 68.8332C85.3144 68.8316 85.3284 68.83 85.3417 68.8284ZM89.9001 65.8064C88.2395 66.5006 86.5166 67.0351 84.7546 67.4027L73.4158 37.6995C74.8193 36.8813 76.2898 36.1842 77.8114 35.6156L85.6527 56.0124C87.0694 59.6856 88.5134 62.9378 89.984 65.7687C89.956 65.7814 89.9288 65.7942 89.9001 65.8064ZM72.605 26.679L69.6702 27.8876L59.3659 0.894242H65.181C65.9722 3.47619 67.08 6.72866 68.5044 10.6517C70.0861 14.8734 70.9758 17.381 71.1743 18.1744C71.3924 18.6816 71.5706 19.205 71.7083 19.7398L74.149 26.0884C73.6353 26.2719 73.1208 26.4661 72.605 26.679Z" fill="#1E90FF"/>
</g>
</svg>
